<?xml version="1.0" encoding="UTF-8" standalone="no"?>
<!-- Created with Inkscape (http://www.inkscape.org/) -->

<svg
   width="26mm"
   height="37mm"
   viewBox="0 0 26 37.000001"
   version="1.1"
   id="svg1"
   xmlns="http://www.w3.org/2000/svg"
   xmlns:svg="http://www.w3.org/2000/svg">
  <defs
     id="defs1">
    <rect
       x="98.555664"
       y="0"
       width="309.63333"
       height="139.84251"
       id="rect2" />
    <rect
       x="134.89073"
       y="47.410618"
       width="251.87659"
       height="53.673954"
       id="rect1" />
  </defs>
  <rect
     style="fill:#786f7e;fill-opacity:1;stroke:none;stroke-width:0.6216;stroke-linejoin:round;stroke-dasharray:none;stroke-opacity:1;paint-order:stroke markers fill"
     id="rect7"
     width="26.076187"
     height="37"
     x="0"
     y="0" />
  <path
     style="fill:#ffffff;fill-opacity:1;stroke:#ffffff;stroke-width:0.975338;stroke-linejoin:round;stroke-dasharray:none;stroke-opacity:1;paint-order:stroke markers fill"
     id="path1"
     d="M 12.25274,13.49048 9.6348243,14.127451 7.7742328,16.076147 7.1372613,13.458231 5.1885653,11.59764 7.8064814,10.960668 9.6670728,9.0119723 10.304044,11.629888 Z" />
  <path
     style="fill:#ffffff;fill-opacity:1;stroke:#ffffff;stroke-width:1.24312;stroke-linejoin:round;stroke-dasharray:none;stroke-opacity:1;paint-order:stroke markers fill"
     id="path2"
     d="m 12.12911,23.644459 -1.67278,1.597149 -0.5467825,2.247245 -1.59715,-1.67278 -2.2472447,-0.546783 1.6727797,-1.59715 0.5467827,-2.247244 1.59715,1.67278 z" />
  <path
     style="fill:#ffffff;fill-opacity:1;stroke:#ffffff;stroke-width:1.24312;stroke-linejoin:round;stroke-dasharray:none;stroke-opacity:1;paint-order:stroke markers fill"
     id="path3"
     d="m 14.865299,24.21186 -1.95273,-3.570424 -3.5704233,-1.952729 3.5704243,-1.95273 1.952729,-3.570424 1.95273,3.570424 3.570424,1.952729 -3.570424,1.95273 z" />
</svg>
