<?xml version="1.0" encoding="UTF-8" standalone="no"?>
<svg
   class="hidden h-8 lg:block"
   role="img"
   aria-label="cohost"
   viewBox="0 0 177.2231 127.84343"
   fill="none"
   version="1.1"
   id="svg5"
   width="177.2231"
   height="127.84343"
   xmlns="http://www.w3.org/2000/svg"
   xmlns:svg="http://www.w3.org/2000/svg">
  <defs
     id="defs5">
    <style
       id="style1">
      svg {
        color: black;
        color-scheme: light dark;
      }
      @media (prefers-color-scheme: dark) {
        svg {
          color: white;
        }
      }
    </style>
  </defs>
  <path
     fill-rule="evenodd"
     clip-rule="evenodd"
     d="m 142.814,106.403 c -11.109,6.803 -23.917,12.149 -38.424,16.036 -16.112102,4.317 -31.298102,6.048 -45.558302,5.192 -14.2601,-0.856 -26.4095,-4.576 -36.4483,-11.16 C 12.344598,109.887 5.5763384,100.068 2.0786784,87.0142 -1.4390516,73.886 -0.49201364,61.9799 4.9197984,51.2958 10.331598,40.6118 19.008298,31.3714 30.949998,23.5747 c 11.9417,-7.7968 25.9685,-13.8537797 42.0804,-18.1709097 16.0373,-4.29719 31.162602,-6.03147505 45.375602,-5.20286805 9.549,0.556762 18.162,2.40187805 25.84,5.53533805 3.749,1.53031 7.275,3.36788 10.578,5.5127397 10.066,6.5368 16.848,16.332 20.346,29.3856 3.497,13.0536 2.527,24.9461 -2.912,35.6774 -0.76,1.4992 -1.583,2.9703 -2.469,4.4141 -0.626,-2.8187 -1.883,-5.2764 -3.771,-7.3731 -0.927,-1.0294 -1.957,-1.9746 -3.092,-2.8358 -2.323,-1.7634 -5.081,-3.1743 -8.274,-4.2327 -4.754,-1.5753 -10.05,-2.3629 -15.889,-2.3629 -5.867,0 -11.183,0.7808 -15.95,2.3425 -4.767,1.5618 -8.556,3.9111 -11.367,7.0481 -2.811,3.137 -4.216,7.0956 -4.216,11.8758 0,4.7531 1.405,8.7048 4.216,11.8554 2.811,3.1506 6.6,5.5206 11.367,7.1096 4.767,1.588 10.083,2.383 15.95,2.383 1.38,0 2.73,-0.044 4.051,-0.133 z M 91.994398,97.9397 c -1.1136,1.1951 -3.0759,2.4643 -5.887,3.8093 -2.8111,1.344 -6.1993,2.478 -10.1647,3.402 -3.9654,0.923 -8.2295,1.385 -12.7925,1.385 -3.9925,0 -7.9036,-0.387 -11.7332,-1.161 -3.8295,-0.774 -7.2925,-2.003 -10.3887,-3.687 -3.0963,-1.684 -5.5611,-3.8841 -7.3944,-6.6001 -1.8333,-2.716 -2.75,-6.016 -2.75,-9.8999 0,-3.9382 0.9167,-7.2653 2.75,-9.9814 1.8333,-2.716 4.2981,-4.9024 7.3944,-6.5591 3.0962,-1.6568 6.5592,-2.8587 10.3887,-3.6056 3.8296,-0.7469 7.7407,-1.1203 11.7332,-1.1203 4.5901,0 8.8271,0.4074 12.711,1.2222 3.8839,0.8148 7.2178,1.8808 10.0017,3.1981 2.784,1.3173 4.8006,2.7228 6.05,4.2166 l -10.4295,6.8443 c -1.521,-1.6567 -3.8296,-2.9807 -6.9259,-3.9721 -3.0962,-0.9913 -6.8579,-1.487 -11.285,-1.487 -2.1728,0 -4.366,0.1698 -6.5796,0.5092 -2.2136,0.3396 -4.2438,0.9167 -6.0907,1.7315 -1.8468,0.8148 -3.3339,1.9555 -4.461,3.4222 -1.1272,1.4666 -1.6908,3.3271 -1.6908,5.5814 0,2.2271 0.5636,4.0673 1.6908,5.5203 1.1271,1.4531 2.6142,2.6074 4.461,3.4629 1.8469,0.8556 3.8771,1.4599 6.0907,1.813 2.2136,0.3531 4.4068,0.5296 6.5796,0.5296 4.3456,0 8.1141,-0.5432 11.3054,-1.6296 3.1913,-1.0864 5.4388,-2.3358 6.7425,-3.7481 z M 138.763,96.3508 c 5.676,0 10.076,-1.0185 13.2,-3.0555 3.123,-2.037 4.685,-4.7394 4.685,-8.1073 0,-3.4494 -1.569,-6.1586 -4.706,-8.1277 -3.137,-1.9691 -7.53,-2.9537 -13.179,-2.9537 -5.677,0 -10.097,0.9846 -13.261,2.9537 -3.164,1.9691 -4.746,4.6783 -4.746,8.1277 0,3.4222 1.582,6.1382 4.746,8.1481 3.164,2.0098 7.584,3.0147 13.261,3.0147 z"
     fill="currentColor"
     id="path1" />
</svg>
