<?xml version="1.0" encoding="UTF-8" standalone="no"?>
<svg
   width="201.05147mm"
   height="131.85039mm"
   viewBox="0 0 201.05147 131.85039"
   version="1.1"
   id="svg1"
   xml:space="preserve"
   xmlns="http://www.w3.org/2000/svg"
   xmlns:svg="http://www.w3.org/2000/svg">
  <defs
   id="defs1">
    <style
   id="style1">
      svg {
        color: #4e4e4e;
        color-scheme: light dark;
      }
      @media (prefers-color-scheme: dark) {
        svg {
          color: #d4d4d4;
        }
      }
    </style>
  </defs>
  <path
   id="path1"
   style="fill:currentColor"
   d="M 82.815242,0.01852792 C 16.906612,-0.02612995 10.074992,-0.00484267 9.0843424,0.24952157 4.2987424,1.4782499 0.75714239,5.8222309 0.11692239,11.247816 c -0.2392,2.027062 -0.0786,80.202292 0.18707,91.031144 0.19192,7.82322 0.41153,9.70214 1.51722001,13.00644 2.97228,8.88251 10.4421896,14.76389 20.7909796,16.36903 h 5.2e-4 c 1.36637,0.21181 7.94372,0.23457 43.6764,0.15037 23.13775,-0.0545 45.442388,-0.16097 49.565448,-0.23667 7.39324,-0.13568 7.52159,-0.14431 9.34,-0.62167 5.89577,-1.54775 10.8655,-4.48526 14.38362,-8.50181 4.07548,-4.65288 6.61801,-10.72535 7.57886,-18.10225 0.14913,-1.14488 0.27079,-2.14447 0.27079,-2.22157 0,-0.0771 1.0239,-0.19198 2.27531,-0.25528 6.17586,-0.31257 13.05526,-1.74043 18.80351,-3.902613 3.07888,-1.158117 8.12462,-3.723612 10.73629,-5.459099 3.22074,-2.140231 5.31666,-3.862752 8.04912,-6.614583 7.62761,-7.681616 12.20879,-17.24581 13.49479,-28.172957 0.31166,-2.647944 0.35775,-8.800921 0.0863,-11.529012 C 199.6426,33.820252 194.8306,22.945578 187.14478,15.162823 183.63446,11.608198 179.14405,8.3457438 174.35848,5.8724342 168.9921,3.0989353 164.27224,1.580282 157.30578,0.38543058 155.54569,0.08355451 151.84557,0.06529778 82.815242,0.01852792 Z M 148.13373,33.487286 h 2.91765 c 3.29806,0 4.8968,0.251393 6.91069,1.087272 3.02877,1.257119 5.79953,3.730259 7.50962,6.701916 1.18137,2.052888 1.88971,5.240489 1.88671,8.495606 -0.007,8.987751 -3.36408,14.553836 -10.59367,17.565853 -1.53862,0.641029 -1.85886,0.707417 -4.25452,0.883667 -1.42488,0.1048 -2.99237,0.190686 -3.48351,0.190686 h -0.89297 v -17.4625 z m -54.532588,0.286287 c 1.5125,0.0035 3.00949,0.109312 3.96772,0.316777 4.316748,0.934558 7.871128,2.85423 10.788998,5.827034 2.43973,2.485647 3.98465,5.396768 4.77904,9.004102 0.46428,2.108327 0.43002,6.65985 -0.0677,8.939506 -0.74323,3.404272 -2.09419,6.620955 -3.93878,9.379789 -2.84051,4.248422 -15.745068,17.287716 -31.817168,32.149459 -1.16417,1.07653 -2.28976,2.04793 -2.50166,2.15853 -0.2119,0.11061 -0.7025,0.20102 -1.09037,0.20102 -0.65946,0 -0.88584,-0.16306 -3.4892,-2.513546 C 54.185682,84.748749 43.474282,74.27514 40.030772,69.70523 c -1.24887,-1.657386 -3.20146,-5.572761 -3.98064,-7.982975 -1.22017,-3.774371 -1.40197,-4.955511 -1.4025,-9.096603 -4.5e-4,-3.466031 0.02963,-3.816762 0.47233,-5.455481 1.20491,-4.460569 3.84352,-7.994319 7.67291,-10.276375 4.64808,-2.769922 10.68695,-3.696875 16.44293,-2.523877 5.04743,1.028598 9.7423,3.539543 13.43845,7.187675 l 1.35806,1.340487 1.28933,-1.221631 c 4.06117,-3.847303 9.23368,-6.613775 14.21877,-7.604704 1.02035,-0.202824 2.54823,-0.301713 4.06073,-0.298173 z" />
</svg>
