<?xml version="1.0" encoding="UTF-8" standalone="no"?>
<!-- Created with Inkscape (http://www.inkscape.org/) -->

<svg
   width="100"
   height="100"
   viewBox="0 0 26.458333 26.458333"
   version="1.1"
   id="svg1"
   xmlns="http://www.w3.org/2000/svg"
   xmlns:svg="http://www.w3.org/2000/svg">
  <defs
     id="defs1" />
  <g
     id="layer1">
    <path
       id="path4"
       style="fill:#000000;fill-opacity:1;stroke:#fdfdfd;stroke-width:1.05833333;stroke-dasharray:none;stroke-opacity:1"
       d="M 22.115963,3.0194531 18.166332,6.9690832 A 9.7748842,9.7748842 0 0 0 8.7245314,4.439005 a 9.7748842,9.7748842 0 0 0 -6.9122395,6.91224 9.7748842,9.7748842 0 0 0 2.5300778,9.441801 l 3.9496301,-3.94963 a 9.7748842,9.7748842 0 0 0 9.4418012,2.530078 9.7748842,9.7748842 0 0 0 6.912239,-6.912239 9.7748842,9.7748842 0 0 0 -2.530077,-9.4418019 z" />
    <g
       id="g5"
       transform="matrix(0.62686574,0,0,0.62686574,5.5088607,6.4961121)"
       style="stroke-width:1.68829347;stroke-dasharray:none">
      <rect
         style="fill:#000000;fill-opacity:1;stroke:#fdfdfd;stroke-width:1.68829347;stroke-dasharray:none;stroke-opacity:1"
         id="rect4"
         width="17.197916"
         height="11.90625"
         x="7.9374995"
         y="13.229165" />
      <path
         style="fill:#000000;fill-opacity:1;stroke:#fdfdfd;stroke-width:1.68829347;stroke-linejoin:bevel;stroke-dasharray:none;stroke-opacity:1"
         d="m 7.9374996,13.229166 8.5989574,5.953124 8.598958,-5.953124 z"
         id="path5" />
    </g>
  </g>
</svg>
