<?xml version="1.0" encoding="UTF-8" standalone="no"?>
<!-- Created with Inkscape (http://www.inkscape.org/) -->

<svg
   width="365"
   height="100"
   viewBox="0 0 96.572891 26.458333"
   version="1.1"
   id="svg1"
   xmlns="http://www.w3.org/2000/svg"
   xmlns:svg="http://www.w3.org/2000/svg">
  <defs
     id="defs1" />
  <g
     id="layer1">
    <path
       d="m 31.736222,11.355031 c -0.05512,-0.337619 -0.137804,-0.613226 -0.206706,-0.778591 l -1.10243,0.254937 c 0.165365,0.647678 0.220486,0.826822 0.220486,2.053275 v 4.864471 l 1.08865,-0.0069 v -5.236541 c 1.005967,-0.482313 1.667424,-0.771701 2.108396,-0.771701 0.454753,0 1.123101,0.227377 1.123101,0.73725 v 3.865394 c 0,0.888834 0.633897,1.240234 1.240233,1.536512 l 0.578776,-0.771701 c -0.385851,-0.206706 -0.73036,-0.35829 -0.73036,-0.813042 v -4.030758 c 0,-1.026638 -1.233343,-1.557182 -2.060166,-1.557182 -0.75792,0 -1.391817,0.199815 -2.25998,0.654567 z m 9.949428,4.905812 c -0.344509,0.289388 -0.647678,0.399631 -1.171332,0.406521 -1.150661,0 -1.750107,-0.813042 -1.750107,-2.156628 0,-1.681205 0.427192,-2.818086 1.86035,-2.818086 1.219563,0 1.660535,1.005967 1.674315,2.273762 v 0.124023 c 0,1.019747 -0.165364,1.750107 -0.613226,2.170408 z m -1.185112,1.4745 h 0.01378 c 2.21864,0 2.880098,-1.770778 2.880098,-3.734481 0,-0.661457 -0.124024,-1.440048 -0.406521,-1.984373 -0.482313,-0.909504 -1.240234,-1.384927 -2.5976,-1.384927 -2.011934,0 -2.714733,1.901691 -2.714733,3.913625 0,1.929252 0.950845,3.183266 2.824976,3.190156 z m 13.132695,-3.913625 c 0.723469,0.37896 2.135957,0.647677 2.666501,1.026637 0.378961,0.282498 0.592556,0.489203 0.592556,0.923285 0,0.757921 -0.819932,1.1231 -1.667425,1.1231 -1.067978,0 -1.543401,-0.496093 -1.543401,-1.419378 l -1.081759,-0.0069 c 0,1.48139 0.881943,2.411565 2.645831,2.411565 0.392741,0 0.806152,-0.04823 1.192002,-0.137804 0.73725,-0.192925 1.522731,-0.819932 1.522731,-1.936142 0,-1.956813 -1.763887,-2.094616 -3.631128,-2.873207 -0.275607,-0.124024 -0.413411,-0.282498 -0.413411,-0.613227 0,-0.447862 0.613227,-0.647677 1.343586,-0.647677 0.592556,0 1.378037,0.289388 1.743217,0.716579 l 0.778591,-0.764811 c -0.564995,-0.695908 -1.777668,-0.971516 -2.61827,-0.971516 -1.205783,0 -2.321993,0.502984 -2.328883,1.694986 0,0.764811 0.351399,1.233343 0.799262,1.4745 z M 61.246887,8.0546323 V 9.604924 h 1.619194 V 8.0546323 Z m 0.71658,2.7078427 c -0.71658,0 -1.4745,0.110243 -2.246201,0.289388 l 0.199816,0.978406 c 0.654567,-0.151584 1.440048,-0.192925 1.777667,-0.192925 v 4.485511 c 0,0.406521 0.05512,0.957736 0.640788,1.281575 0.303168,0.165364 0.826822,0.261827 1.412488,0.261827 0.854383,0 1.839679,-0.206706 2.432235,-0.695909 l -0.468532,-0.785481 c -0.475423,0.358289 -1.329806,0.502983 -1.970593,0.502983 -0.633897,0 -0.937066,-0.02756 -0.971517,-0.592556 0,0 -0.0069,-3.651798 -0.0069,-5.532819 z m 6.063365,7.503412 c 0,-0.434081 0.192925,-0.847492 0.578775,-0.999077 1.005967,-0.01378 1.398708,-0.01378 1.46072,-0.01378 0.833712,0 1.86035,0.07579 1.86035,0.661458 0,1.143771 -0.957736,1.426268 -1.750107,1.426268 H 69.4531 c -0.909504,0 -1.426268,-0.206705 -1.426268,-1.074869 z M 69.673586,13.9044 c -0.895724,0 -1.536511,-0.248047 -1.536511,-1.047308 0,-0.633897 0.709689,-1.136881 1.646754,-1.136881 0.875054,0 1.460719,0.268717 1.460719,1.157551 0,0.668348 -0.682128,1.026638 -1.570962,1.026638 z m -2.625161,-0.978406 c 0,0.496093 0.186035,0.923284 0.420302,1.185111 -0.289388,0.330729 -0.509874,0.74414 -0.509874,1.371147 0,0.537435 0.192925,1.026638 0.585666,1.316026 -0.378961,0.330729 -0.599446,0.819932 -0.599446,1.50895 0,1.440049 1.026637,2.108397 2.480466,2.108397 h 0.70969 c 1.681205,0 2.880097,-0.723469 2.880097,-2.508027 0,-1.309136 -1.192002,-1.715656 -2.487357,-1.715656 -0.186035,0 -1.067979,0.01378 -1.247124,0.01378 -0.868163,0 -1.240233,-0.289388 -1.240233,-0.813042 0,-0.282498 0.165365,-0.523654 0.296278,-0.675238 0.447862,0.172254 0.881944,0.220486 1.371147,0.220486 1.550292,0 2.61138,-0.785481 2.61138,-2.087727 0,-0.330728 -0.02756,-0.620116 -0.206705,-0.943955 0.117133,-0.117133 0.38585,-0.151584 0.627007,-0.151584 0.0689,0 0.220486,0.02067 0.303168,0.03445 v -1.129991 c -0.757921,0 -1.1231,0.0689 -1.508951,0.427192 -0.447862,-0.275607 -0.957736,-0.413411 -1.750107,-0.413411 -1.694986,0 -2.735404,0.806152 -2.735404,2.253092 z m 8.509379,-1.570963 c -0.05512,-0.337619 -0.137803,-0.613226 -0.206705,-0.778591 l -1.10243,0.254937 c 0.165365,0.647678 0.220486,0.826822 0.220486,2.053275 v 4.864471 l 1.088649,-0.0069 v -5.236541 c 1.005967,-0.482313 1.667425,-0.771701 2.108397,-0.771701 0.454752,0 1.1231,0.227377 1.1231,0.73725 v 3.865394 c 0,0.888834 0.633897,1.240234 1.240234,1.536512 l 0.578775,-0.771701 c -0.38585,-0.206706 -0.730359,-0.35829 -0.730359,-0.813042 v -4.030758 c 0,-1.026638 -1.233344,-1.557182 -2.060166,-1.557182 -0.75792,0 -1.391817,0.199815 -2.259981,0.654567 z m 7.05555,4.244355 c 0,-0.813042 0.819932,-1.322916 1.756997,-1.329806 0.71658,0 1.226454,0.199815 1.619194,0.440972 v 0.654567 c -0.179145,0.282498 -0.902614,1.371147 -2.349553,1.371147 -0.640787,0 -1.026638,-0.413411 -1.026638,-1.13688 z m 4.45795,-0.04823 v -2.273761 c 0,-1.550292 -1.074869,-2.618271 -2.742294,-2.618271 -1.233343,0 -2.156628,0.413412 -2.818086,1.667425 l 0.895725,0.564996 c 0.551214,-0.985297 0.985296,-1.192003 1.936142,-1.192003 1.171331,0 1.646754,0.627007 1.646754,1.929252 -0.37207,-0.227376 -0.806152,-0.351399 -1.674315,-0.351399 -0.813042,0 -1.508951,0.165364 -2.163518,0.833712 -0.406521,0.420302 -0.613227,1.033528 -0.613227,1.557182 0,1.143771 0.923285,2.115287 2.101507,2.115287 1.357366,0 2.060165,-0.599446 2.5976,-1.11621 0.124023,0.695909 0.537434,0.868164 0.895724,1.143771 l 0.571885,-0.819932 c -0.199815,-0.158474 -0.454752,-0.316948 -0.544324,-0.440972 -0.08957,-0.117133 -0.08957,-0.75792 -0.08957,-0.999077 z m 4.09277,-7.6136549 c -0.716579,0 -1.515841,0.01378 -2.287541,0.1929252 l 0.192925,0.9852966 c 0.420301,-0.096463 0.916394,-0.1171332 1.309135,-0.1171332 0.206706,0 0.392741,0.00689 0.509874,0.00689 l 0.02067,7.3035973 c 0,0.406521 0.05512,0.957735 0.640788,1.281574 0.303168,0.165365 0.826822,0.261827 1.412488,0.261827 0.854383,0 1.839679,-0.206705 2.432235,-0.695909 l -0.468532,-0.785481 c -0.475423,0.35829 -1.329806,0.502984 -1.970593,0.502984 -0.633898,0 -0.937066,-0.02756 -0.971517,-0.592556 0,0 -0.02067,-6.4629944 -0.02067,-8.3440151 z"
       id="text2"
       style="font-size:14.1111px;font-family:'Fantasque Sans Mono';-inkscape-font-specification:'Fantasque Sans Mono, Normal';text-align:center;text-anchor:middle;fill:#ffffff;stroke-width:1.5875;stroke-linejoin:bevel"
       aria-label="no signal" />
    <path
       id="path4"
       style="fill:#000000;fill-opacity:1;stroke:#fdfdfd;stroke-width:1.05833;stroke-dasharray:none;stroke-opacity:1"
       d="M 22.115963,3.0194531 18.166332,6.9690832 A 9.7748842,9.7748842 0 0 0 8.7245314,4.439005 a 9.7748842,9.7748842 0 0 0 -6.9122395,6.91224 9.7748842,9.7748842 0 0 0 2.5300778,9.441801 l 3.9496301,-3.94963 a 9.7748842,9.7748842 0 0 0 9.4418012,2.530078 9.7748842,9.7748842 0 0 0 6.912239,-6.912239 9.7748842,9.7748842 0 0 0 -2.530077,-9.4418019 z" />
    <g
       id="g5"
       transform="matrix(0.62686574,0,0,0.62686574,5.5088607,6.4961121)"
       style="stroke-width:1.68829;stroke-dasharray:none">
      <rect
         style="fill:#000000;fill-opacity:1;stroke:#fdfdfd;stroke-width:1.68829;stroke-dasharray:none;stroke-opacity:1"
         id="rect4"
         width="17.197916"
         height="11.90625"
         x="7.9374995"
         y="13.229165" />
      <path
         style="fill:#000000;fill-opacity:1;stroke:#fdfdfd;stroke-width:1.68829;stroke-linejoin:bevel;stroke-dasharray:none;stroke-opacity:1"
         d="m 7.9374996,13.229166 8.5989574,5.953124 8.598958,-5.953124 z"
         id="path5" />
    </g>
  </g>
</svg>
