<?xml version="1.0" encoding="UTF-8" standalone="no"?>
<!-- Created with Inkscape (http://www.inkscape.org/) -->

<svg
   width="100"
   height="100"
   viewBox="0 0 26.458333 26.458333"
   version="1.1"
   id="svg1"
   xml:space="preserve"
   xmlns="http://www.w3.org/2000/svg"
   xmlns:svg="http://www.w3.org/2000/svg">
  <defs
     id="defs1">
    <style
       id="style1">
      svg {
        color: black;
        color-scheme: light dark;
      }
      @media (prefers-color-scheme: dark) {
        svg {
          color: white;
        }
      }
    </style>
  </defs>
  <path
     style="fill:none;stroke:currentColor;stroke-opacity:1;stroke-width:1.58749998;stroke-dasharray:none"
     d="m 3.0691665,26.458332 c 0.1210961,-1.978343 0.4644972,-4.018081 0.9948948,-5.926666 0.3867682,-1.391748 0.8624639,-2.161997 1.4392718,-3.175 C 5.0120283,17.115379 4.4259695,16.844856 4.061765,16.428992 3.534608,15.827061 3.4194556,15.156598 3.5569981,14.287499 3.7314609,13.185105 4.500965,12.194339 4.7868184,11.112499 5.6020504,8.0271728 6.0913793,4.7989623 9.3133345,3.2101818 10.849445,2.4527087 12.683716,2.023804 14.393333,2.3515521 c 1.329494,0.2548762 2.526124,0.6958296 3.597498,1.5591958 1.051822,0.8476113 1.80966,1.786761 2.492462,2.9684249 1.067805,1.8479524 1.220144,3.9478162 1.461093,6.0324932 0.08187,0.708361 0.143469,1.313197 0.180047,2.010833 0.07568,1.443341 0.67747,3.44852 0.596488,4.868259 -0.09492,1.664102 -1.917324,1.915426 -2.54878,3.257183 -0.396332,0.842153 0.387506,2.518081 0.571191,3.410391 M 9.6308329,9.6308329 C 8.9962746,10.599638 8.8117502,11.562843 8.7895164,12.699999 c -0.024845,1.270683 -0.1509299,2.607128 0.1078721,3.915834 0.1191206,0.602367 0.4524958,1.08071 0.7926244,1.587499 1.1096751,1.65341 2.2964081,3.41308 4.0689191,4.462389 1.866796,1.105128 4.643831,0.8515 6.413209,0.38222 m -8.31439,-12.597845 c 3.417086,-1.1759161 5.363776,4.665668 2.005895,5.930967 -1.111596,0.418864 -2.242249,-0.182015 -2.90994,-1.058406 -0.539583,-0.70824 -0.809628,-1.557836 -0.814942,-2.410957 -0.0066,-1.067354 0.645116,-2.092054 1.718987,-2.461604 m -3.0735848,6.483237 c -1.0198391,1.335648 -1.9207579,0.867653 -3.2808331,0.423333"
     id="path1" />
</svg>
